# xmcd CD database file
#
# Track frame offsets:
#	150
#	56007
#	76425
#	125327
#	137167
#	159572
#	207472
#	225175
#	259812
#	285600
#
# Disc length: 4188 seconds
#
# Revision: 1
# Processed by: cddbd v1.5.2PL0 Copyright (c) Steve Scherf et al.
# Submitted via: CDex 1.70beta3
#
DISCID=8a105a0a
DTITLE=Various Artist - SHADES OF BLUE COMPLETED Disc2
DYEAR=2005
DGENRE=Jazz
TTITLE0=MOVE YOUR HAND - Lonnie Smith Group
TTITLE1=UNA MAS - Eliane Elias Trio
TTITLE2=GOOD OLD DAYS - Geri Allen, Joe Lovano with Wallace Roney
TTITLE3=JOSHUA FIT DE BATTLE OB JERICHO - Cassandra Wilson with Ron Carter
TTITLE4=RECADO BOSSA NOVA - Gonzalo Rubalcaba
TTITLE5=CRISIS - Bob Belden with Tim Hagans
TTITLE6=SOUL LAMENT - Fareed Haque
TTITLE7=OMEGA - New Stars
TTITLE8=SPELLBOUND - Detroit Generation
TTITLE9=THE SIDEWINDER - Richard Elliot, Benny Green with Tukka Yoot (Us3)
EXTD=YEAR: 2005
EXTT0=
EXTT1=
EXTT2=
EXTT3=
EXTT4=
EXTT5=
EXTT6=
EXTT7=
EXTT8=
EXTT9=
PLAYORDER=
